# xmcd
#
# Track frame offsets: 
#        150
#        19917
#        50612
#        68621
#        80992
#        99475
#        123622
#        138757
#        178239
#        196590
#        213294
#        228993
#        241809
#        257259
#        269762
#        285661
#
# Disc length: 3993 seconds
#
# Revision: 1
# Processed by: cddbd v1.5.1PL0 Copyright (c) Steve Scherf et al.
# Submitted via: ExactAudioCopy v0.95a5
#
DISCID=e40f9710
DTITLE=Various Artist - Simply The Best Blues [Disc 1]
DYEAR=2003
DGENRE=Blues
TTITLE0=Eric Clapton and B.B. King - Riding With The King
TTITLE1=Gary Moore - Still Got The Blues
TTITLE2=Stevie Ray Vaughan - Cold Shot
TTITLE3=Bo Diddley - Bo Diddley
TTITLE4=Robert CraySmokin' Gun
TTITLE5=John Lee Hooker - The Waterfront
TTITLE6=Fabulous Thunderbirds - Tuff Enuff
TTITLE7=Duane Allman - Goin' Down Slow
TTITLE8=George Thorogood and The Destroyers - Willie And The Hand Jive
TTITLE9=Chris Whitley - Living With The Law
TTITLE10=Keb Mo - Kind Hearted Woman Blues
TTITLE11=Joe Turner - Roll Em Pete
TTITLE12=Roy Buchanan - Supernova
TTITLE13=Johnny Winter - Johnny B Goode
TTITLE14=Rick Derringer - Rock And Roll, Hoocie Koo
TTITLE15=Taj Mahal - Fishin' Blues
EXTD=YEAR: 2003
EXTT0=
EXTT1=
EXTT2=
EXTT3=
EXTT4=
EXTT5=
EXTT6=
EXTT7=
EXTT8=
EXTT9=
EXTT10=
EXTT11=
EXTT12=
EXTT13=
EXTT14=
EXTT15=
PLAYORDER=
